<svg width="807" height="170" viewBox="0 0 807 170" fill="none" xmlns="http://www.w3.org/2000/svg">
<g clip-path="url(#clip0_491_57)">
<path d="M185.316 122V42.08H218.58C234.672 42.08 244.392 50.504 244.392 64.22C244.392 72.752 240.504 79.016 233.268 82.148C241.152 84.74 245.364 90.896 245.364 99.968C245.364 114.116 235.86 122 218.58 122H185.316ZM216.744 57.416H202.812V74.804H216.744C223.008 74.804 226.464 71.672 226.464 65.948C226.464 60.332 223.116 57.416 216.744 57.416ZM217.608 89.492H202.812V106.664H217.608C224.088 106.664 227.436 103.748 227.436 97.808C227.436 92.408 223.98 89.492 217.608 89.492ZM251.874 147.92V133.988H261.054C266.67 133.988 269.046 132.26 271.206 126.428L272.178 123.836L250.47 68H268.29L280.062 102.668L293.13 68H310.41L282.978 133.772C278.442 144.788 272.394 149.432 262.89 149.432C258.894 149.432 255.114 148.892 251.874 147.92ZM341.236 122H324.604V81.824H314.344V68H324.604V51.26H341.236V68H351.496V81.824H341.236V122ZM385.659 123.404C369.351 123.404 357.687 111.524 357.687 94.892C357.687 78.044 369.027 66.272 385.335 66.272C402.291 66.272 412.875 77.396 412.875 95V99.212L373.671 99.428C374.643 106.556 378.639 109.904 385.983 109.904C392.247 109.904 396.675 107.636 397.863 103.748H413.091C411.147 115.736 400.455 123.404 385.659 123.404ZM385.443 79.772C378.855 79.772 375.183 82.688 373.887 89.168H396.351C396.351 83.444 392.139 79.772 385.443 79.772ZM438.276 122H427.692V43.916H438.276V77.504H476.94V43.916H487.524V122H476.94V87.332H438.276V122ZM502.61 95.54C502.61 79.232 514.274 67.784 530.15 67.784C545.918 67.784 557.582 79.232 557.582 95.54C557.582 111.848 545.918 123.296 530.15 123.296C514.274 123.296 502.61 111.848 502.61 95.54ZM512.87 95.54C512.87 106.556 519.89 114.224 530.15 114.224C540.302 114.224 547.43 106.556 547.43 95.54C547.43 84.524 540.302 76.856 530.15 76.856C519.89 76.856 512.87 84.524 512.87 95.54ZM566.66 106.664H576.38C576.38 112.064 580.484 115.304 587.18 115.304C594.308 115.304 598.412 112.388 598.412 107.528C598.412 103.964 596.684 101.804 591.176 100.4L581.888 98.24C572.492 95.972 568.064 91.328 568.064 83.552C568.064 73.832 576.272 67.676 587.936 67.676C599.492 67.676 607.052 74.156 607.268 84.2H597.548C597.332 78.908 593.768 75.56 587.612 75.56C581.24 75.56 577.676 78.368 577.676 83.228C577.676 86.792 580.268 89.168 585.452 90.464L594.74 92.732C603.704 94.892 608.132 98.996 608.132 106.88C608.132 116.924 599.492 123.296 586.964 123.296C574.544 123.296 566.66 116.708 566.66 106.664ZM636.454 122H626.302V77.72H615.934V69.188H626.302V52.664H636.454V69.188H646.822V77.72H636.454V122ZM663.061 56.66C659.389 56.66 656.365 53.636 656.365 49.964C656.365 46.184 659.389 43.268 663.061 43.268C666.733 43.268 669.757 46.184 669.757 49.964C669.757 53.636 666.733 56.66 663.061 56.66ZM658.093 122V69.188H668.245V122H658.093ZM695.295 122H685.143V69.188H694.323L695.403 77.288C698.751 71.24 705.447 67.676 712.899 67.676C726.831 67.676 733.203 76.208 733.203 89.708V122H723.051V91.976C723.051 81.284 718.083 76.964 710.307 76.964C700.803 76.964 695.295 83.768 695.295 94.028V122ZM746.076 94.244C746.076 79.34 755.688 67.676 771.024 67.676C779.556 67.676 786.144 71.564 789.492 78.152L790.248 69.188H799.32V119.84C799.32 136.472 789.06 147.056 772.86 147.056C758.496 147.056 748.668 138.956 746.724 125.564H756.876C758.172 133.34 764.004 137.876 772.86 137.876C782.796 137.876 789.276 131.396 789.276 121.352V110.768C785.82 116.924 778.908 120.596 770.592 120.596C755.58 120.596 746.076 109.04 746.076 94.244ZM756.228 94.028C756.228 103.964 762.384 111.74 772.32 111.74C782.58 111.74 788.844 104.396 788.844 94.028C788.844 83.876 782.796 76.532 772.428 76.532C762.276 76.532 756.228 84.308 756.228 94.028Z" fill="white"/>
<path d="M12.0915 26.0855L42.8448 1.30569C48.0784 -2.91131 55.8642 0.813989 55.8642 7.53509V61.1161C55.8642 63.5685 54.7394 65.8854 52.8124 67.4023L34.7785 81.598C32.8514 83.115 31.7266 85.431 31.7266 87.884V124.239C31.7266 126.621 30.6651 128.88 28.8308 130.4L20.9202 136.954C15.6675 141.306 7.72697 137.51 7.81667 130.689L9.11157 32.2097C9.14287 29.8263 10.2354 27.581 12.0915 26.0855Z" fill="url(#paint0_linear_491_57)"/>
<path d="M41.6166 85.3241L78.547 55.5669C84.827 50.5065 94.17 54.9769 94.17 63.0422V127.928C94.17 130.724 92.951 133.381 90.832 135.205L52.6126 168.09C46.3239 173.501 36.5958 168.926 36.7529 160.631L38.0416 92.6171C38.0955 89.7771 39.4045 87.1061 41.6166 85.3241Z" fill="url(#paint1_linear_491_57)"/>
</g>
<defs>
<linearGradient id="paint0_linear_491_57" x1="67.1479" y1="-2.67021" x2="-12.9841" y2="136.122" gradientUnits="userSpaceOnUse">
<stop stop-color="#4930AB"/>
<stop offset="1" stop-color="#C4A7FF"/>
</linearGradient>
<linearGradient id="paint1_linear_491_57" x1="102.276" y1="47.6584" x2="27.5851" y2="177.027" gradientUnits="userSpaceOnUse">
<stop stop-color="#4930AB"/>
<stop offset="1" stop-color="#C4A7FF"/>
</linearGradient>
<clipPath id="clip0_491_57">
<rect width="807" height="170" fill="white"/>
</clipPath>
</defs>
</svg>
