<svg width="850" height="215" viewBox="0 0 850 215" fill="none" xmlns="http://www.w3.org/2000/svg">
<path d="M228.316 142V62.08H261.58C277.672 62.08 287.392 70.504 287.392 84.22C287.392 92.752 283.504 99.016 276.268 102.148C284.152 104.74 288.364 110.896 288.364 119.968C288.364 134.116 278.86 142 261.58 142H228.316ZM259.744 77.416H245.812V94.804H259.744C266.008 94.804 269.464 91.672 269.464 85.948C269.464 80.332 266.116 77.416 259.744 77.416ZM260.608 109.492H245.812V126.664H260.608C267.088 126.664 270.436 123.748 270.436 117.808C270.436 112.408 266.98 109.492 260.608 109.492ZM294.874 167.92V153.988H304.054C309.67 153.988 312.046 152.26 314.206 146.428L315.178 143.836L293.47 88H311.29L323.062 122.668L336.13 88H353.41L325.978 153.772C321.442 164.788 315.394 169.432 305.89 169.432C301.894 169.432 298.114 168.892 294.874 167.92ZM384.236 142H367.604V101.824H357.344V88H367.604V71.26H384.236V88H394.496V101.824H384.236V142ZM428.659 143.404C412.351 143.404 400.687 131.524 400.687 114.892C400.687 98.044 412.027 86.272 428.335 86.272C445.291 86.272 455.875 97.396 455.875 115V119.212L416.671 119.428C417.643 126.556 421.639 129.904 428.983 129.904C435.247 129.904 439.675 127.636 440.863 123.748H456.091C454.147 135.736 443.455 143.404 428.659 143.404ZM428.443 99.772C421.855 99.772 418.183 102.688 416.887 109.168H439.351C439.351 103.444 435.139 99.772 428.443 99.772ZM481.276 142H470.692V63.916H481.276V97.504H519.94V63.916H530.524V142H519.94V107.332H481.276V142ZM545.61 115.54C545.61 99.232 557.274 87.784 573.15 87.784C588.918 87.784 600.582 99.232 600.582 115.54C600.582 131.848 588.918 143.296 573.15 143.296C557.274 143.296 545.61 131.848 545.61 115.54ZM555.87 115.54C555.87 126.556 562.89 134.224 573.15 134.224C583.302 134.224 590.43 126.556 590.43 115.54C590.43 104.524 583.302 96.856 573.15 96.856C562.89 96.856 555.87 104.524 555.87 115.54ZM609.66 126.664H619.38C619.38 132.064 623.484 135.304 630.18 135.304C637.308 135.304 641.412 132.388 641.412 127.528C641.412 123.964 639.684 121.804 634.176 120.4L624.888 118.24C615.492 115.972 611.064 111.328 611.064 103.552C611.064 93.832 619.272 87.676 630.936 87.676C642.492 87.676 650.052 94.156 650.268 104.2H640.548C640.332 98.908 636.768 95.56 630.612 95.56C624.24 95.56 620.676 98.368 620.676 103.228C620.676 106.792 623.268 109.168 628.452 110.464L637.74 112.732C646.704 114.892 651.132 118.996 651.132 126.88C651.132 136.924 642.492 143.296 629.964 143.296C617.544 143.296 609.66 136.708 609.66 126.664ZM679.454 142H669.302V97.72H658.934V89.188H669.302V72.664H679.454V89.188H689.822V97.72H679.454V142ZM706.061 76.66C702.389 76.66 699.365 73.636 699.365 69.964C699.365 66.184 702.389 63.268 706.061 63.268C709.733 63.268 712.757 66.184 712.757 69.964C712.757 73.636 709.733 76.66 706.061 76.66ZM701.093 142V89.188H711.245V142H701.093ZM738.295 142H728.143V89.188H737.323L738.403 97.288C741.751 91.24 748.447 87.676 755.899 87.676C769.831 87.676 776.203 96.208 776.203 109.708V142H766.051V111.976C766.051 101.284 761.083 96.964 753.307 96.964C743.803 96.964 738.295 103.768 738.295 114.028V142ZM789.076 114.244C789.076 99.34 798.688 87.676 814.024 87.676C822.556 87.676 829.144 91.564 832.492 98.152L833.248 89.188H842.32V139.84C842.32 156.472 832.06 167.056 815.86 167.056C801.496 167.056 791.668 158.956 789.724 145.564H799.876C801.172 153.34 807.004 157.876 815.86 157.876C825.796 157.876 832.276 151.396 832.276 141.352V130.768C828.82 136.924 821.908 140.596 813.592 140.596C798.58 140.596 789.076 129.04 789.076 114.244ZM799.228 114.028C799.228 123.964 805.384 131.74 815.32 131.74C825.58 131.74 831.844 124.396 831.844 114.028C831.844 103.876 825.796 96.532 815.428 96.532C805.276 96.532 799.228 104.308 799.228 114.028Z" fill="white"/>
<path d="M55.0916 46.0855L85.8449 21.3057C91.0785 17.0887 98.8643 20.814 98.8643 27.5351L98.8643 81.1161C98.8643 83.5685 97.7395 85.8854 95.8125 87.4023L77.7786 101.598C75.8515 103.115 74.7267 105.431 74.7267 107.884L74.7267 144.239C74.7267 146.621 73.6652 148.88 71.8309 150.4L63.9203 156.954C58.6676 161.306 50.7271 157.51 50.8168 150.689L52.1117 52.2097C52.143 49.8263 53.2355 47.581 55.0916 46.0855Z" fill="url(#paint0_linear_56_6)"/>
<path d="M84.6166 105.324L121.547 75.5668C127.827 70.5064 137.17 74.9768 137.17 83.0421L137.17 147.928C137.17 150.724 135.951 153.381 133.832 155.205L95.6126 188.09C89.3239 193.501 79.5958 188.926 79.7529 180.631L81.0416 112.617C81.0955 109.777 82.4045 107.106 84.6166 105.324Z" fill="url(#paint1_linear_56_6)"/>
<defs>
<linearGradient id="paint0_linear_56_6" x1="110.148" y1="17.3298" x2="30.016" y2="156.122" gradientUnits="userSpaceOnUse">
<stop stop-color="#4930AB"/>
<stop offset="1" stop-color="#C4A7FF"/>
</linearGradient>
<linearGradient id="paint1_linear_56_6" x1="145.276" y1="67.6583" x2="70.5851" y2="197.027" gradientUnits="userSpaceOnUse">
<stop stop-color="#4930AB"/>
<stop offset="1" stop-color="#C4A7FF"/>
</linearGradient>
</defs>
</svg>
